# xmcd
#
# Track frame offsets:
#	183
#	10883
#	22253
#	34560
#	47348
#	57843
#	70518
#	80873
#	94695
#	105258
#	115005
#	127743
#	140830
#	151458
#	164193
#	176108
#	188713
#	202505
#	216268
#	226153
#	238318
#	252518
#
# Disc length: 3528 seconds
#
# Revision: 5
# Processed by: cddbd v1.5.2PL0 Copyright (c) Steve Scherf et al.
# Submitted via: EZCDAudioConverter 7.1.4.1
#
DISCID=290dc616
DTITLE=Various Artist - Chess: The Rhythm And The Blues
DYEAR=1993
DGENRE=Blues
TTITLE0=Chuck Berry - Maybellene
TTITLE1=Bo Diddley - Bo Diddley
TTITLE2=John Lee Hooker - Walking The Boogie
TTITLE3=Muddy Waters - (Im Your) Hoochie Coochie Man
TTITLE4=Sonny Boy Williamson - Let Your Conscience Be Your Guide
TTITLE5=Jimmy Rogers - Walking By Myself
TTITLE6=Elmore James - Talk To Me Baby
TTITLE7=Little Walter - You Better Watch Yourself
TTITLE8=Etta James - Tell Mama
TTITLE9=Howlin Wolf - Down In The Bottom
TTITLE10=Bo Diddley - Nursery Rhyme
TTITLE11=Buddy Guy - Let Me Love You Baby
TTITLE12=B.B. King - Recession Blues
TTITLE13=Muddy Waters - I Just Want To Make Love To You
TTITLE14=Chuck Berry - Johnny B. Goode
TTITLE15=Elmore James - The Sun Is Shining
TTITLE16=Little Walter - Flying Saucer
TTITLE17=Albert King - Searching For A Woman
TTITLE18=Buddy Guy - First Time I Met The Blues
TTITLE19=Howling Wolf - Spoonful
TTITLE20=Sonny Boy Williamson - Help Me 
TTITLE21=Jimmy Rogers - Chicago Bound
EXTD=
EXTT0=
EXTT1=
EXTT2=
EXTT3=
EXTT4=
EXTT5=
EXTT6=
EXTT7=
EXTT8=
EXTT9=
EXTT10=
EXTT11=
EXTT12=
EXTT13=
EXTT14=
EXTT15=
EXTT16=
EXTT17=
EXTT18=
EXTT19=
EXTT20=
EXTT21=
PLAYORDER=
